<svg width="500" height="500" viewBox="0 0 500 500" fill="none" xmlns="http://www.w3.org/2000/svg">
<mask id="mask0_150_122" style="mask-type:alpha" maskUnits="userSpaceOnUse" x="0" y="0" width="500" height="500">
<rect width="500" height="500" fill="#D9D9D9"/>
</mask>
<g mask="url(#mask0_150_122)">
<path d="M438.032 230.208V395.833C438.032 407.292 433.952 417.101 425.792 425.26C417.633 433.42 407.824 437.5 396.365 437.5H104.699C93.2403 437.5 83.4312 433.42 75.2715 425.26C67.1118 417.101 63.0319 407.292 63.0319 395.833V230.208C55.0458 222.917 48.8826 213.542 44.5423 202.083C40.2021 190.625 40.1153 178.125 44.2819 164.583L66.1569 93.75C68.9347 84.7222 73.8826 77.2569 81.0007 71.3542C88.1187 65.4514 96.3653 62.5 105.74 62.5H395.324C404.699 62.5 412.858 65.3646 419.803 71.0938C426.747 76.8229 431.782 84.375 434.907 93.75L456.782 164.583C460.949 178.125 460.862 190.451 456.521 201.563C452.181 212.674 446.018 222.222 438.032 230.208ZM296.365 208.333C305.74 208.333 312.858 205.122 317.719 198.698C322.581 192.274 324.49 185.069 323.449 177.083L311.99 104.167H271.365V181.25C271.365 188.542 273.796 194.878 278.657 200.26C283.518 205.642 289.421 208.333 296.365 208.333ZM202.615 208.333C210.601 208.333 217.112 205.642 222.147 200.26C227.181 194.878 229.699 188.542 229.699 181.25V104.167H189.074L177.615 177.083C176.226 185.417 178.049 192.708 183.084 198.958C188.119 205.208 194.629 208.333 202.615 208.333ZM109.907 208.333C116.157 208.333 121.626 206.076 126.313 201.563C131.001 197.049 133.865 191.319 134.907 184.375L146.365 104.167H105.74L84.9069 173.958C82.8236 180.903 83.9521 188.368 88.2923 196.354C92.6326 204.34 99.8375 208.333 109.907 208.333ZM391.157 208.333C401.226 208.333 408.518 204.34 413.032 196.354C417.546 188.368 418.587 180.903 416.157 173.958L394.282 104.167H354.699L366.157 184.375C367.199 191.319 370.063 197.049 374.751 201.563C379.438 206.076 384.907 208.333 391.157 208.333ZM104.699 395.833H396.365V248.958C394.629 249.653 393.501 250 392.98 250H391.157C381.782 250 373.535 248.438 366.417 245.313C359.299 242.188 352.268 237.153 345.324 230.208C339.074 236.458 331.956 241.319 323.969 244.792C315.983 248.264 307.476 250 298.449 250C289.074 250 280.306 248.264 272.147 244.792C263.987 241.319 256.782 236.458 250.532 230.208C244.629 236.458 237.772 241.319 229.959 244.792C222.147 248.264 213.726 250 204.699 250C194.629 250 185.515 248.264 177.355 244.792C169.195 241.319 161.99 236.458 155.74 230.208C148.449 237.5 141.244 242.622 134.126 245.573C127.008 248.524 118.935 250 109.907 250H107.563C106.695 250 105.74 249.653 104.699 248.958V395.833Z" fill="#FF6E1F"/>
</g>
</svg>
