<svg width="500" height="500" viewBox="0 0 500 500" fill="none" xmlns="http://www.w3.org/2000/svg">
<mask id="mask0_150_116" style="mask-type:alpha" maskUnits="userSpaceOnUse" x="0" y="0" width="500" height="500">
<rect width="500" height="500" fill="#D9D9D9"/>
</mask>
<g mask="url(#mask0_150_116)">
<path d="M135.418 333.34C151.738 333.34 167.623 335.163 183.075 338.809C198.526 342.454 213.891 347.923 229.168 355.215V150.007C214.932 141.673 199.828 135.423 183.856 131.257C167.884 127.09 151.738 125.007 135.418 125.007C122.918 125.007 110.505 126.222 98.1787 128.652C85.8523 131.083 73.96 134.729 62.5016 139.59V345.84C74.6544 341.673 86.7204 338.548 98.6995 336.465C110.679 334.382 122.918 333.34 135.418 333.34ZM270.835 355.215C286.113 347.923 301.477 342.454 316.929 338.809C332.38 335.163 348.265 333.34 364.585 333.34C377.085 333.34 389.325 334.382 401.304 336.465C413.283 338.548 425.349 341.673 437.502 345.84V139.59C426.043 134.729 414.151 131.083 401.825 128.652C389.498 126.222 377.085 125.007 364.585 125.007C348.265 125.007 332.12 127.09 316.147 131.257C300.175 135.423 285.071 141.673 270.835 150.007V355.215ZM250.002 405.736C245.141 405.736 240.54 405.128 236.2 403.913C231.859 402.698 227.779 401.048 223.96 398.965C210.418 390.979 196.182 384.989 181.252 380.996C166.321 377.003 151.043 375.007 135.418 375.007C120.835 375.007 106.512 376.916 92.4495 380.736C78.387 384.555 64.9322 389.937 52.085 396.882C44.7933 400.701 37.762 400.527 30.9912 396.361C24.2204 392.194 20.835 386.118 20.835 378.132V127.09C20.835 123.27 21.7898 119.625 23.6995 116.152C25.6093 112.68 28.4738 110.076 32.2933 108.34C48.2655 100.007 64.9322 93.7565 82.2933 89.5898C99.6544 85.4232 117.363 83.3398 135.418 83.3398C155.557 83.3398 175.262 85.944 194.533 91.1523C213.804 96.3607 232.293 104.173 250.002 114.59C267.71 104.173 286.2 96.3607 305.47 91.1523C324.741 85.944 344.446 83.3398 364.585 83.3398C382.64 83.3398 400.349 85.4232 417.71 89.5898C435.071 93.7565 451.738 100.007 467.71 108.34C471.529 110.076 474.394 112.68 476.304 116.152C478.213 119.625 479.168 123.27 479.168 127.09V378.132C479.168 386.118 475.783 392.194 469.012 396.361C462.241 400.527 455.21 400.701 447.918 396.882C435.071 389.937 421.616 384.555 407.554 380.736C393.491 376.916 379.168 375.007 364.585 375.007C348.96 375.007 333.682 377.003 318.752 380.996C303.821 384.989 289.585 390.979 276.043 398.965C272.224 401.048 268.144 402.698 263.804 403.913C259.463 405.128 254.863 405.736 250.002 405.736ZM291.668 182.819C291.668 179.694 292.797 176.482 295.054 173.184C297.311 169.885 299.828 167.715 302.606 166.673C312.675 163.201 322.745 160.597 332.814 158.861C342.884 157.125 353.474 156.257 364.585 156.257C371.529 156.257 378.387 156.691 385.158 157.559C391.929 158.427 398.613 159.555 405.21 160.944C408.335 161.638 411.026 163.375 413.283 166.152C415.54 168.93 416.668 172.055 416.668 175.527C416.668 181.43 414.759 185.77 410.939 188.548C407.12 191.326 402.259 192.02 396.356 190.632C391.495 189.59 386.373 188.809 380.991 188.288C375.609 187.767 370.14 187.507 364.585 187.507C355.557 187.507 346.703 188.375 338.022 190.111C329.342 191.847 321.009 194.104 313.022 196.882C306.772 199.312 301.651 199.138 297.658 196.361C293.665 193.583 291.668 189.069 291.668 182.819ZM291.668 297.402C291.668 294.277 292.797 291.066 295.054 287.767C297.311 284.468 299.828 282.298 302.606 281.257C312.675 277.784 322.745 275.18 332.814 273.444C342.884 271.708 353.474 270.84 364.585 270.84C371.529 270.84 378.387 271.274 385.158 272.142C391.929 273.01 398.613 274.138 405.21 275.527C408.335 276.222 411.026 277.958 413.283 280.736C415.54 283.513 416.668 286.638 416.668 290.111C416.668 296.013 414.759 300.354 410.939 303.132C407.12 305.909 402.259 306.604 396.356 305.215C391.495 304.173 386.373 303.392 380.991 302.871C375.609 302.35 370.14 302.09 364.585 302.09C355.557 302.09 346.703 302.871 338.022 304.434C329.342 305.996 321.009 308.166 313.022 310.944C306.772 313.375 301.651 313.288 297.658 310.684C293.665 308.079 291.668 303.652 291.668 297.402ZM291.668 240.111C291.668 236.986 292.797 233.774 295.054 230.475C297.311 227.177 299.828 225.007 302.606 223.965C312.675 220.493 322.745 217.888 332.814 216.152C342.884 214.416 353.474 213.548 364.585 213.548C371.529 213.548 378.387 213.982 385.158 214.85C391.929 215.718 398.613 216.847 405.21 218.236C408.335 218.93 411.026 220.666 413.283 223.444C415.54 226.222 416.668 229.347 416.668 232.819C416.668 238.722 414.759 243.062 410.939 245.84C407.12 248.618 402.259 249.312 396.356 247.923C391.495 246.882 386.373 246.1 380.991 245.579C375.609 245.059 370.14 244.798 364.585 244.798C355.557 244.798 346.703 245.666 338.022 247.402C329.342 249.138 321.009 251.395 313.022 254.173C306.772 256.604 301.651 256.43 297.658 253.652C293.665 250.875 291.668 246.361 291.668 240.111Z" fill="#FF6E1F"/>
</g>
</svg>
