<svg width="500" height="500" viewBox="0 0 500 500" fill="none" xmlns="http://www.w3.org/2000/svg">
<mask id="mask0_150_98" style="mask-type:alpha" maskUnits="userSpaceOnUse" x="0" y="0" width="500" height="500">
<rect width="500" height="500" fill="#D9D9D9"/>
</mask>
<g mask="url(#mask0_150_98)">
<path d="M249.992 62.5C280.547 62.5 311.624 67.7083 343.221 78.125C374.818 88.5417 402.77 103.125 427.075 121.875C432.631 126.042 436.797 131.076 439.575 136.979C442.353 142.882 443.742 148.958 443.742 155.208C443.742 159.028 443.134 162.934 441.919 166.927C440.704 170.92 438.881 174.826 436.45 178.646L284.888 406.25C280.721 412.5 275.513 417.188 269.263 420.313C263.013 423.438 256.589 425 249.992 425C243.395 425 236.971 423.438 230.721 420.313C224.471 417.188 219.263 412.5 215.096 406.25L63.5335 178.646C61.103 174.826 59.3669 171.007 58.3252 167.188C57.2835 163.368 56.7627 159.549 56.7627 155.729C56.7627 149.479 58.1516 143.403 60.9294 137.5C63.7071 131.597 67.8738 126.563 73.4294 122.396C97.7349 103.993 125.6 89.4097 157.023 78.6458C188.447 67.8819 219.436 62.5 249.992 62.5ZM249.992 104.167C221.172 104.167 194.61 109.028 170.304 118.75C145.999 128.472 121.867 140.625 97.9085 155.208L249.992 383.333L402.075 155.208C378.117 140.278 354.072 128.038 329.94 118.49C305.808 108.941 279.159 104.167 249.992 104.167ZM197.909 208.333C206.589 208.333 213.968 205.295 220.044 199.219C226.12 193.142 229.159 185.764 229.159 177.083C229.159 168.403 226.12 161.024 220.044 154.948C213.968 148.872 206.589 145.833 197.909 145.833C189.228 145.833 181.85 148.872 175.773 154.948C169.697 161.024 166.659 168.403 166.659 177.083C166.659 185.764 169.697 193.142 175.773 199.219C181.85 205.295 189.228 208.333 197.909 208.333ZM249.992 312.5C258.672 312.5 266.051 309.462 272.127 303.385C278.204 297.309 281.242 289.931 281.242 281.25C281.242 272.569 278.204 265.191 272.127 259.115C266.051 253.038 258.672 250 249.992 250C241.311 250 233.933 253.038 227.856 259.115C221.78 265.191 218.742 272.569 218.742 281.25C218.742 289.931 221.78 297.309 227.856 303.385C233.933 309.462 241.311 312.5 249.992 312.5Z" fill="#FF6E1F"/>
</g>
</svg>
