<svg width="500" height="500" viewBox="0 0 500 500" fill="none" xmlns="http://www.w3.org/2000/svg">
<mask id="mask0_150_110" style="mask-type:alpha" maskUnits="userSpaceOnUse" x="0" y="0" width="500" height="500">
<rect width="500" height="500" fill="#D9D9D9"/>
</mask>
<g mask="url(#mask0_150_110)">
<path d="M249.477 280.167L105.727 422.875C101.908 426.694 97.1335 428.691 91.4043 428.865C85.6752 429.038 80.7273 427.042 76.5606 422.875C72.7412 419.056 70.8314 414.194 70.8314 408.292C70.8314 402.389 72.7412 397.528 76.5606 393.708L275.519 194.75C269.269 180.167 268.401 163.674 272.915 145.271C277.429 126.868 287.324 110.375 302.602 95.7917C321.005 77.3889 341.491 66.625 364.061 63.5C386.63 60.375 405.033 65.9306 419.269 80.1667C433.505 94.4028 439.061 112.806 435.936 135.375C432.811 157.944 422.047 178.431 403.644 196.833C389.061 212.111 372.568 222.007 354.165 226.521C335.762 231.035 319.269 230.167 304.686 223.917L278.644 249.958L422.394 393.708C426.213 397.528 428.21 402.302 428.383 408.031C428.557 413.76 426.561 418.708 422.394 422.875C418.574 426.694 413.713 428.604 407.811 428.604C401.908 428.604 397.047 426.694 393.227 422.875L249.477 280.167ZM152.602 259.333L90.1023 196.833C75.5189 182.25 66.3175 163.847 62.4981 141.625C58.6787 119.403 63.0189 99.6111 75.5189 82.25C79.3384 77.0417 84.4599 74.0903 90.8835 73.3958C97.3071 72.7014 102.776 74.7847 107.29 79.6458L219.269 192.667L152.602 259.333Z" fill="#FF6E1F"/>
</g>
</svg>
