<svg width="666" height="666" viewBox="0 0 666 666" fill="none" xmlns="http://www.w3.org/2000/svg">
<path d="M137.17 157.856C139.366 157.856 140.521 158.955 140.633 161.151L145.279 265.811H174.084C178.645 265.811 180.926 268.091 180.926 272.653V310.158C180.926 314.719 178.645 317 174.084 317H118.924C114.475 317 112.251 314.832 112.251 310.496C112.251 310.327 112.251 310.158 112.251 309.989L117.404 161.151C117.46 158.955 118.614 157.856 120.867 157.856H137.17ZM254.838 272.568L248.418 245.2C247.968 243.341 246.701 242.412 244.617 242.412C243.209 242.412 242.308 243.116 241.914 244.524L234.818 269.612C234.593 270.344 234.481 270.991 234.481 271.555C234.481 273.244 235.494 274.258 237.521 274.596L251.206 276.876C251.375 276.933 251.544 276.961 251.713 276.961C253.909 276.961 255.007 275.863 255.007 273.666C255.007 273.328 254.951 272.962 254.838 272.568ZM310.758 333.81C310.871 334.148 310.927 334.486 310.927 334.823C310.927 337.02 309.772 338.118 307.464 338.118H280.01C276.294 338.118 273.76 336.513 272.408 333.303L258.808 300.528L228.736 295.882L221.725 312.776C220.543 315.592 218.628 317 215.981 317H191.316C189.063 317 187.937 315.902 187.937 313.706C187.937 313.255 187.993 312.805 188.106 312.354L236.001 186.915C237.184 183.761 239.577 182.015 243.181 181.677L262.187 179.819C262.694 179.763 263.173 179.734 263.623 179.734C267.847 179.734 270.493 181.762 271.563 185.816L310.758 333.81Z" fill="#FAF3E1"/>
<path d="M177.125 402.093C177.125 397.419 174.928 394.631 170.536 393.73L149.756 389.591C149.306 389.479 148.911 389.422 148.573 389.422C147.166 389.422 146.462 390.323 146.462 392.125C146.462 392.182 146.462 392.238 146.462 392.294L146.884 416.537C146.94 418.79 147.729 419.916 149.249 419.916C149.643 419.916 150.122 419.832 150.685 419.663L170.451 414.172C174.9 412.933 177.125 410.061 177.125 405.556V402.093ZM146.715 444.751C144.406 444.751 143.252 445.905 143.252 448.214V482.003C143.252 486.001 141.253 488 137.254 488H118.248C114.25 488 112.251 486.001 112.251 482.003V366.108C112.251 360.984 114.813 358.421 119.938 358.421H174.928C183.77 358.421 191.71 360.927 198.749 365.939L201.114 367.629C208.21 372.697 211.758 379.595 211.758 388.324V410.709C211.758 419.381 208.717 426.871 202.635 433.178L200.439 435.459C194.357 441.766 187.008 444.92 178.392 444.92H178.223L146.715 444.751ZM263.116 484.537C263.116 486.846 261.962 488 259.653 488H222.992C220.684 488 219.529 486.874 219.529 484.621C219.529 484.565 219.529 484.48 219.529 484.368L224.26 356.31C224.428 351.861 226.737 349.636 231.186 349.636H256.274C260.835 349.636 263.116 351.917 263.116 356.479V484.537ZM319.543 394.068C319.937 393.449 320.134 392.745 320.134 391.956C320.134 389.873 319.036 388.775 316.84 388.662L283.896 386.973C280.01 386.747 278.068 384.692 278.068 380.806V357.323C278.068 353.325 280.067 351.326 284.065 351.326H364.65C368.649 351.326 370.648 353.325 370.648 357.323V371.514C370.648 372.134 370.535 372.725 370.31 373.288L327.652 447.707C327.314 448.27 327.145 448.834 327.145 449.397C327.145 451.593 328.3 452.691 330.609 452.691H368.958C373.52 452.691 375.801 454.972 375.801 459.533V481.158C375.801 485.719 373.52 488 368.958 488H280.771C276.885 488 274.886 486.001 274.773 482.003L274.435 467.811V467.727C274.435 467.164 274.661 466.516 275.111 465.784L319.543 394.068ZM431.045 394.068C431.439 393.449 431.636 392.745 431.636 391.956C431.636 389.873 430.538 388.775 428.342 388.662L395.398 386.973C391.512 386.747 389.569 384.692 389.569 380.806V357.323C389.569 353.325 391.569 351.326 395.567 351.326H476.152C480.151 351.326 482.15 353.325 482.15 357.323V371.514C482.15 372.134 482.037 372.725 481.812 373.288L439.154 447.707C438.816 448.27 438.647 448.834 438.647 449.397C438.647 451.593 439.802 452.691 442.11 452.691H480.46C485.022 452.691 487.302 454.972 487.302 459.533V481.158C487.302 485.719 485.022 488 480.46 488H392.272C388.387 488 386.388 486.001 386.275 482.003L385.937 467.811V467.727C385.937 467.164 386.162 466.516 386.613 465.784L431.045 394.068ZM561.215 441.794L552.683 414.848C552.176 413.215 551.134 412.398 549.558 412.398C547.812 412.398 546.657 413.328 546.094 415.186L537.985 440.781C537.816 441.344 537.732 441.851 537.732 442.301C537.732 444.047 538.858 445.032 541.111 445.258L555.302 446.694C555.809 446.75 556.315 446.778 556.822 446.778C559.863 446.778 561.384 445.652 561.384 443.399C561.384 442.892 561.327 442.357 561.215 441.794ZM609.617 479.891C609.954 481.073 610.123 482.143 610.123 483.101C610.123 486.367 608.152 488 604.21 488H578.278C575.8 488 573.942 486.789 572.703 484.368L566.198 471.528L534.015 466.882L527.511 483.354C526.272 486.451 523.963 488 520.584 488H499.044C495.609 488 493.891 486.564 493.891 483.692C493.891 482.566 494.145 481.214 494.651 479.637L534.522 354.874C535.592 351.607 537.816 349.974 541.195 349.974H570.253C573.688 349.974 575.856 351.664 576.757 355.043L609.617 479.891Z" fill="#FAF3E1"/>
<path d="M491.162 158.273C515.9 180.695 535.591 208.118 548.931 238.725C562.271 269.332 568.955 302.424 568.541 335.809L332.888 332.887L491.162 158.273Z" fill="#FE0000"/>
</svg>
