<svg width="25" height="25" viewBox="0 0 25 25" fill="none" xmlns="http://www.w3.org/2000/svg">
<mask id="mask0_153_155" style="mask-type:alpha" maskUnits="userSpaceOnUse" x="0" y="0" width="25" height="25">
<rect x="0.708984" y="0.0546875" width="24" height="24" fill="#D9D9D9"/>
</mask>
<g mask="url(#mask0_153_155)">
<path d="M7.50977 13.0555L10.4098 15.9555C10.5931 16.1388 10.6848 16.3721 10.6848 16.6555C10.6848 16.9388 10.5931 17.1721 10.4098 17.3555C10.2264 17.5388 9.9931 17.6305 9.70977 17.6305C9.42643 17.6305 9.1931 17.5388 9.00977 17.3555L4.40977 12.7555C4.30977 12.6555 4.23893 12.5471 4.19727 12.4305C4.1556 12.3138 4.13477 12.1888 4.13477 12.0555C4.13477 11.9221 4.1556 11.7971 4.19727 11.6805C4.23893 11.5638 4.30977 11.4555 4.40977 11.3555L9.00977 6.75547C9.1931 6.57214 9.42643 6.48047 9.70977 6.48047C9.9931 6.48047 10.2264 6.57214 10.4098 6.75547C10.5931 6.9388 10.6848 7.17214 10.6848 7.45547C10.6848 7.7388 10.5931 7.97214 10.4098 8.15547L7.50977 11.0555H20.7098C20.9931 11.0555 21.2306 11.1513 21.4223 11.343C21.6139 11.5346 21.7098 11.7721 21.7098 12.0555C21.7098 12.3388 21.6139 12.5763 21.4223 12.768C21.2306 12.9596 20.9931 13.0555 20.7098 13.0555H7.50977Z" fill="white"/>
</g>
</svg>
